<?xml version="1.0" encoding="UTF-8"?>
<svg version="1.1" xmlns="http://www.w3.org/2000/svg" width="362" height="114">
<path d="M0 0 C0.81999985 -0.00511093 1.63999969 -0.01022186 2.48484802 -0.01548767 C5.19391187 -0.02938055 7.90272118 -0.02842697 10.61181641 -0.02612305 C12.49744766 -0.03001047 14.38307803 -0.03434524 16.26870728 -0.03910828 C20.221322 -0.04657007 24.17384741 -0.04627974 28.12646484 -0.04101562 C33.18610821 -0.03522458 38.24538509 -0.05214336 43.30496788 -0.0753603 C47.19979991 -0.09010952 51.09454395 -0.09096765 54.98939896 -0.08785057 C56.8544754 -0.0883633 58.71955684 -0.09359197 60.58460617 -0.10366249 C63.19596741 -0.11603103 65.80661845 -0.10923259 68.41796875 -0.09765625 C69.18492569 -0.10529999 69.95188263 -0.11294373 70.74208069 -0.12081909 C75.5210382 -0.07411088 78.78098711 0.74410274 82.83837891 3.2746582 C87.5496803 8.367957 87.99144367 12.40622007 88.01538086 19.10742188 C88.02195206 19.90455597 88.02852325 20.70169006 88.03529358 21.52297974 C88.05501396 24.16286312 88.06668771 26.80268959 88.07666016 29.44262695 C88.08073568 30.3455932 88.08481121 31.24855946 88.08901024 32.17888832 C88.10986778 36.96023962 88.12416964 41.74156227 88.13354492 46.52294922 C88.14459556 51.45132889 88.17898076 56.37925535 88.21871662 61.30747509 C88.24491883 65.10544143 88.25324006 68.90330049 88.2568264 72.70134926 C88.26168475 74.51734788 88.27327726 76.33334194 88.2918644 78.14925194 C88.3163281 80.69816875 88.31527771 83.24592253 88.30834961 85.79492188 C88.32115967 86.53755783 88.33396973 87.28019379 88.34716797 88.04533386 C88.29410532 93.4330201 87.19449178 97.95442538 83.83837891 102.2746582 C78.73857226 105.40516364 74.13694357 105.70917873 68.33618164 105.6628418 C67.10552475 105.67072723 67.10552475 105.67072723 65.8500061 105.67877197 C63.15713059 105.69189989 60.46485344 105.68326048 57.77197266 105.6730957 C55.89062894 105.67511832 54.00928599 105.67803132 52.12794495 105.68179321 C48.19321191 105.68620663 44.25868376 105.67981645 40.32397461 105.66577148 C35.28793527 105.64866842 30.25237524 105.65853413 25.21635342 105.67648888 C21.33438014 105.6873432 17.45252002 105.683873 13.57054329 105.6761055 C11.7138469 105.67410867 9.85714013 105.67654457 8.00045586 105.68354416 C5.40375522 105.69118713 2.80782508 105.67951541 0.21118164 105.6628418 C-0.55106216 105.66891449 -1.31330597 105.67498718 -2.09864807 105.6812439 C-8.13630686 105.60964302 -12.19874676 104.2276523 -16.48974609 99.95825195 C-19.56319048 94.73880525 -18.85429893 88.20292367 -18.91162109 82.3371582 C-18.93832791 80.91461218 -18.96610944 79.492086 -18.99487305 78.06958008 C-19.06768519 74.04926849 -19.10797208 70.02918998 -19.13946533 66.00836182 C-19.16307225 63.09560591 -19.19316836 60.18295552 -19.22363281 57.27026367 C-19.27594839 51.98806203 -19.31146921 46.70596066 -19.33483887 41.42355347 C-19.34430837 39.33575177 -19.35624375 37.2479597 -19.37072754 35.16018677 C-19.38860883 32.1982576 -19.39235897 29.23663505 -19.39208984 26.2746582 C-19.39921494 25.39768784 -19.40634003 24.52071747 -19.41368103 23.61717224 C-19.38878205 16.72497549 -19.24129765 9.84688974 -14.78662109 4.3371582 C-9.8552924 0.4625428 -6.21347524 -0.01996532 0 0 Z M34.83837891 18.2746582 C32.33830018 22.84025261 30.87613878 27.34941744 29.68212891 32.3840332 C29.49372437 33.1508844 29.30531982 33.9177356 29.11120605 34.70782471 C28.51349252 37.14517593 27.92541465 39.5847154 27.33837891 42.0246582 C20.68808875 69.42494836 20.68808875 69.42494836 18.83837891 71.2746582 C18.44005859 70.13125977 18.04173828 68.98786133 17.63134766 67.80981445 C17.09680092 66.31871039 16.56161128 64.82783669 16.02587891 63.3371582 C15.63432617 62.20503906 15.63432617 62.20503906 15.23486328 61.05004883 C14.52327804 59.09099315 13.68776334 57.17802332 12.83837891 55.2746582 C10.09935165 54.36164912 8.46389621 54.14619213 5.64306641 54.1418457 C4.84513672 54.14055664 4.04720703 54.13926758 3.22509766 54.13793945 C2.39623047 54.14180664 1.56736328 54.14567383 0.71337891 54.1496582 C-0.12322266 54.14579102 -0.95982422 54.14192383 -1.82177734 54.13793945 C-5.80877866 53.74315868 -5.80877866 53.74315868 -9.16162109 55.2746582 C-9.20225941 56.94082935 -9.2043421 58.60853915 -9.16162109 60.2746582 C-6.09628945 61.80732402 -2.89407837 61.37742291 0.46337891 61.3371582 C1.16978516 61.33264648 1.87619141 61.32813477 2.60400391 61.32348633 C4.34883166 61.31169695 6.0936159 61.29376145 7.83837891 61.2746582 C8.00853516 61.84571289 8.17869141 62.41676758 8.35400391 63.00512695 C9.1782414 65.76281517 10.00843441 68.51868218 10.83837891 71.2746582 C11.17482422 72.40258789 11.51126953 73.53051758 11.85791016 74.69262695 C12.20208984 75.83344727 12.54626953 76.97426758 12.90087891 78.1496582 C13.22185547 79.21958008 13.54283203 80.28950195 13.87353516 81.3918457 C14.69266254 83.83927894 15.6091317 86.01284335 16.83837891 88.2746582 C19.21143469 88.692467 19.21143469 88.692467 21.83837891 88.2746582 C24.25053083 84.93533187 25.42421628 81.76295412 26.37353516 77.7824707 C26.62554687 76.74735352 26.87755859 75.71223633 27.13720703 74.64575195 C27.38921875 73.57454102 27.64123047 72.50333008 27.90087891 71.3996582 C28.41159813 69.27702163 28.9232924 67.15461938 29.43603516 65.0324707 C29.67725098 64.02885498 29.9184668 63.02523926 30.16699219 61.99121094 C30.97381873 58.72664407 31.89761481 55.50292337 32.83837891 52.2746582 C33.17641969 50.97769896 33.50956211 49.67945538 33.83837891 48.38012695 C34.00337891 47.73495117 34.16837891 47.08977539 34.33837891 46.42504883 C34.67638632 45.09810568 35.00959605 43.76993263 35.33837891 42.44067383 C36.61524965 37.49778745 36.61524965 37.49778745 38.83837891 35.2746582 C39.05977539 35.99121582 39.28117187 36.70777344 39.50927734 37.44604492 C40.51993677 40.68572896 41.55380613 43.91753544 42.58837891 47.1496582 C42.93642578 48.27758789 43.28447266 49.40551758 43.64306641 50.56762695 C43.99111328 51.64399414 44.33916016 52.72036133 44.69775391 53.8293457 C45.01196289 54.82434082 45.32617188 55.81933594 45.64990234 56.84448242 C46.63828026 59.34545363 46.63828026 59.34545363 48.65356445 60.59619141 C52.96588482 61.93532855 57.42399511 61.60155333 61.90087891 61.5871582 C63.41004883 61.61132812 63.41004883 61.61132812 64.94970703 61.63598633 C65.91457031 61.63663086 66.87943359 61.63727539 67.87353516 61.63793945 C68.75404541 61.64092041 69.63455566 61.64390137 70.54174805 61.64697266 C73.26439646 61.20559508 74.13635808 60.38812589 75.83837891 58.2746582 C75.50837891 57.2846582 75.17837891 56.2946582 74.83837891 55.2746582 C69.63664796 54.40656381 64.66859075 54.14950472 59.40087891 54.2121582 C58.66933594 54.21666992 57.93779297 54.22118164 57.18408203 54.22583008 C55.40214472 54.23747673 53.62025028 54.25540629 51.83837891 54.2746582 C51.74298828 53.52055664 51.64759766 52.76645508 51.54931641 51.98950195 C50.55993566 46.81971574 49.00836367 41.86474292 47.46337891 36.8371582 C47.15916016 35.82588867 46.85494141 34.81461914 46.54150391 33.77270508 C44.91620741 28.44881719 43.15889978 23.33567153 40.83837891 18.2746582 C38.85837891 18.2746582 36.87837891 18.2746582 34.83837891 18.2746582 Z " fill="#F2F3F3" transform="translate(22.16162109375,3.725341796875)"/>
<path d="M0 0 C26.96290383 0.02394929 26.96290383 0.02394929 33.98583984 6.19042969 C38.84884205 11.27447745 41.01027693 15.56790137 41.29833984 22.56542969 C41.14565887 29.04346521 38.75946125 34.94017382 34.98583984 40.19042969 C34.32583984 40.19042969 33.66583984 40.19042969 32.98583984 40.19042969 C32.98583984 40.85042969 32.98583984 41.51042969 32.98583984 42.19042969 C31.76077086 42.84400247 30.53054468 43.48791202 29.29833984 44.12792969 C28.27160156 44.66740234 28.27160156 44.66740234 27.22412109 45.21777344 C22.30615018 47.35490216 17.45622058 47.31813619 12.17333984 47.25292969 C9.80146484 47.23230469 7.42958984 47.21167969 4.98583984 47.19042969 C4.98583984 55.11042969 4.98583984 63.03042969 4.98583984 71.19042969 C0.36583984 71.19042969 -4.25416016 71.19042969 -9.01416016 71.19042969 C-9.03671295 62.0808348 -9.05507627 52.97125832 -9.06597233 43.86164188 C-9.07120072 39.63211598 -9.07829755 35.40261009 -9.08959961 31.1730957 C-9.10043007 27.09474426 -9.10643733 23.01641212 -9.1090374 18.93804741 C-9.11089136 17.37865329 -9.11451143 15.81926029 -9.11989021 14.25987434 C-9.12710277 12.08313807 -9.12815101 9.90648254 -9.12768555 7.72973633 C-9.12990616 6.48841446 -9.13212677 5.24709259 -9.13441467 3.96815491 C-8.89349463 -1.59678928 -4.60306983 0.03347687 0 0 Z M4.98583984 13.19042969 C4.98583984 20.12042969 4.98583984 27.05042969 4.98583984 34.19042969 C7.35771484 34.27292969 9.72958984 34.35542969 12.17333984 34.44042969 C13.27971802 34.49505371 13.27971802 34.49505371 14.40844727 34.55078125 C17.92380232 34.60964743 19.87201383 34.26007526 22.88427734 32.41699219 C25.89820958 29.22379261 26.63674528 26.50424109 26.98583984 22.19042969 C26.76039649 18.84569733 26.76039649 18.84569733 24.98583984 16.19042969 C18.79433975 12.06276296 12.22212263 12.96662713 4.98583984 13.19042969 Z " fill="#E9EAEB" transform="translate(146.01416015625,20.8095703125)"/>
<path d="M0 0 C5.5403974 3.35277268 9.58084148 8.25551011 11.5 14.4375 C11.73046875 17.953125 11.73046875 17.953125 11.6875 21.6875 C11.68105469 22.93015625 11.67460937 24.1728125 11.66796875 25.453125 C11.5 28.4375 11.5 28.4375 10.5 29.4375 C8.05169574 29.52593793 5.63179401 29.55278752 3.18359375 29.53515625 C2.45253922 29.5337413 1.72148468 29.53232635 0.96827698 29.53086853 C-1.37535632 29.52525408 -3.71889539 29.51269922 -6.0625 29.5 C-7.64778508 29.49498686 -9.23307166 29.49042363 -10.81835938 29.48632812 C-14.7122761 29.47527997 -18.60612205 29.45800572 -22.5 29.4375 C-22.005 30.38625 -21.51 31.335 -21 32.3125 C-19.5 35.4375 -19.5 35.4375 -19.5 37.4375 C-18.71625 37.746875 -17.9325 38.05625 -17.125 38.375 C-14.5 39.4375 -14.5 39.4375 -12.5 40.4375 C-6.68664715 40.82505686 -3.68707709 40.26681477 1.5 37.4375 C2.82 37.4375 4.14 37.4375 5.5 37.4375 C7.37620422 40.60359462 7.59662822 42.79582401 7.5 46.4375 C-1.24564368 52.19933584 -9.77413603 52.69688848 -19.9921875 51.03125 C-25.6282307 49.36456018 -29.31968518 45.23615223 -32.5 40.4375 C-36.67496098 32.25340593 -36.71162362 23.32035177 -34.87890625 14.421875 C-32.45869763 7.40864823 -27.78426765 2.57963383 -21.171875 -0.7265625 C-14.66233947 -2.76317157 -6.28267612 -2.83145752 0 0 Z M-20.5 13.4375 C-21.16 15.4175 -21.82 17.3975 -22.5 19.4375 C-15.57 19.4375 -8.64 19.4375 -1.5 19.4375 C-3.25213641 12.23740365 -3.25213641 12.23740365 -8.5 8.4375 C-14.09287783 7.36652339 -16.68477342 9.44885403 -20.5 13.4375 Z " fill="#E4E5E6" transform="translate(345.5,41.5625)"/>
<path d="M0 0 C4.29 0 8.58 0 13 0 C13.01458252 1.00377686 13.02916504 2.00755371 13.04418945 3.04174805 C13.10232052 6.7787575 13.17955165 10.51517369 13.26245117 14.25170898 C13.2956311 15.86651963 13.32368458 17.48144431 13.34643555 19.09643555 C13.38011025 21.42285592 13.43242963 23.74823783 13.48828125 26.07421875 C13.49467117 26.79212082 13.5010611 27.51002289 13.50764465 28.24967957 C13.63536803 32.6395492 14.30286711 35.50174676 17 39 C19.62287265 40.14133371 22.16073614 40.21031584 25 40 C27.43063337 38.86225672 29.11813896 37.88186104 31 36 C31.15702247 34.65475995 31.25083502 33.30200375 31.31640625 31.94921875 C31.35830078 31.11068359 31.40019531 30.27214844 31.44335938 29.40820312 C31.48267578 28.51037109 31.52199219 27.61253906 31.5625 26.6875 C31.60568359 25.78064453 31.64886719 24.87378906 31.69335938 23.93945312 C31.95746051 18.05796277 32.0744202 12.20006846 31.9375 6.3125 C32 4 32 4 33 0 C37.29 0 41.58 0 46 0 C46 16.83 46 33.66 46 51 C41.71 51 37.42 51 33 51 C33 50.34 33 49.68 33 49 C31.948125 49.495 30.89625 49.99 29.8125 50.5 C23.01744209 53.04360457 15.37709495 53.08549481 8.5 50.875 C4.5385779 47.90393342 1.5964594 44.78937819 0 40 C-0.08544291 38.66471193 -0.11774625 37.32556112 -0.11352539 35.98754883 C-0.11344986 35.18694534 -0.11337433 34.38634186 -0.11329651 33.56147766 C-0.10813522 32.70201035 -0.10297394 31.84254303 -0.09765625 30.95703125 C-0.0962413 30.0734343 -0.09482635 29.18983734 -0.09336853 28.27946472 C-0.08777069 25.45710872 -0.07521861 22.63483203 -0.0625 19.8125 C-0.05748472 17.89908969 -0.05292186 15.98567813 -0.04882812 14.07226562 C-0.03780197 9.38147986 -0.02053883 4.69075337 0 0 Z " fill="#EBECED" transform="translate(192,41)"/>
<path d="M0 0 C1.09284302 -0.00942627 1.09284302 -0.00942627 2.20776367 -0.01904297 C6.88363027 0.09065166 10.45171375 0.72100557 14.375 3.5 C15.1796875 5.98046875 15.1796875 5.98046875 15.25 8.6875 C15.30800781 10.03908203 15.30800781 10.03908203 15.3671875 11.41796875 C15.37105469 12.44857422 15.37105469 12.44857422 15.375 13.5 C12.02589144 14.64415247 10.26068669 14.34961317 7 13.0625 C3.30493194 11.74370104 0.34070814 10.93347027 -3.625 11.5 C-5.64978463 12.60649669 -5.64978463 12.60649669 -6.625 14.5 C-6.78886342 16.54518755 -6.78886342 16.54518755 -5.625 18.5 C-3.190461 19.50563571 -0.96284938 20.260084 1.5625 20.9375 C7.98377649 22.67281082 12.8519305 24.75185629 16.7265625 30.5078125 C18.43660348 35.76155287 18.12417058 40.94403033 15.75 45.875 C11.49993693 50.57243813 7.27822662 53.33037328 0.8984375 53.703125 C-6.89576396 53.84620696 -13.33964475 53.62229511 -20.625 50.5 C-20.625 46.54 -20.625 42.58 -20.625 38.5 C-15.625 39.5 -15.625 39.5 -12.375 41.0625 C-8.21198205 42.93814545 -4.12321148 42.976389 0.375 42.5 C1.365 42.005 1.365 42.005 2.375 41.5 C2.375 39.52 2.375 37.54 2.375 35.5 C1.35019531 35.17386719 0.32539063 34.84773438 -0.73046875 34.51171875 C-2.09125123 34.07063753 -3.45192249 33.62921307 -4.8125 33.1875 C-5.48603516 32.97416016 -6.15957031 32.76082031 -6.85351562 32.54101562 C-11.87615746 30.89946927 -16.2828208 29.39756369 -19.4375 24.9375 C-21.45467726 19.09830266 -21.69540076 13.86380168 -19.125 8.1875 C-13.1975025 1.81544019 -8.64673578 0.057306 0 0 Z " fill="#E1E3E4" transform="translate(288.625,39.5)"/>
<path d="M0 0 C4.29 0 8.58 0 13 0 C13 24.42 13 48.84 13 74 C8.71 74 4.42 74 0 74 C0 49.58 0 25.16 0 0 Z " fill="#FBFBFC" transform="translate(248,18)"/>
<path d="M0 0 C0.99 0 1.98 0 3 0 C3 24.42 3 48.84 3 74 C-1.29 74 -5.58 74 -10 74 C-10 73.67 -10 73.34 -10 73 C-5.05 72.505 -5.05 72.505 0 72 C1.01958052 56.80011863 1.31107401 41.60423154 1.5625 26.375 C1.60580881 23.90364036 1.64942647 21.43228612 1.69335938 18.9609375 C1.79912732 12.97401572 1.90110656 6.98703908 2 1 C1.34 0.67 0.68 0.34 0 0 Z " fill="#898A93" transform="translate(258,18)"/>
<path d="M0 0 C0.66 0.33 1.32 0.66 2 1 C1.67 1.66 1.34 2.32 1 3 C0.34 3 -0.32 3 -1 3 C-1.4640625 3.928125 -1.4640625 3.928125 -1.9375 4.875 C-2.625 6.25 -3.3125 7.625 -4 9 C-4.66 9 -5.32 9 -6 9 C-4.68775452 5.06326356 -3.08089673 2.77280706 0 0 Z " fill="#9497A1" transform="translate(319,44)"/>
<path d="M0 0 C0.66 0.33 1.32 0.66 2 1 C1.21654285 2.17219543 0.42297164 3.33763668 -0.375 4.5 C-0.81585937 5.1496875 -1.25671875 5.799375 -1.7109375 6.46875 C-2.13632813 6.9740625 -2.56171875 7.479375 -3 8 C-3.66 8 -4.32 8 -5 8 C-4.45773019 4.20411134 -2.79872437 2.52788007 0 0 Z " fill="#B1B4BE" transform="translate(10,6)"/>
</svg>
